# xmcd
#
# Track frame offsets:
# 150
# 14276
# 31013
# 52393
# 75538
# 95441
# 115197
# 139039
# 153474
# 172910
# 204807
# 226750
#
# Disc length: 3326 seconds
#
# Revision: 1
# Processed by: cddbd v1.5PL3 Copyright (c) Steve Scherf et al.
# Submitted via: Easy CD Ripper 1.45
#
DISCID=880cfc0c
DTITLE=Pat The White - Pat The White
DYEAR=2004
DGENRE=Blues
TTITLE0=Better Way
TTITLE1=Pat The White - Be Good To Me
TTITLE2=Pat The White - Soul Of A Dead Man
TTITLE3=Pat The White - Feels Like Mississippi
TTITLE4=Pat The White - How Long
TTITLE5=Pat The White - Jesus Gonna Be Here
TTITLE6=Pat The White - Crosseyed Cat
TTITLE7=Pat The White - Risk
TTITLE8=Pat The White - The Wind Don't Blow
TTITLE9=Pat The White - I Will Promise You
TTITLE10=Pat The White - A Good Fool Is Hard To Find
TTITLE11=Pat The White - Change Your Mind
EXTD=
EXTT0=
EXTT1=
EXTT2=
EXTT3=
EXTT4=
EXTT5=
EXTT6=
EXTT7=
EXTT8=
EXTT9=
EXTT10=
EXTT11=
PLAYORDER=
